# AST/ASF file generated using VICON BodyLanguage
# -----------------------------------------------
:version 1.10
:name VICON
:units
  mass 1.0
  length 0.45
  angle deg
:documentation
   .ast/.asf automatically generated from VICON data using
   VICON BodyBuilder and BodyLanguage model FoxedUp or BRILLIANT.MOD
:root
   order TX TY TZ RX RY RZ
   axis XYZ
   position 0 0 0  
   orientation 0 0 0 
:bonedata
  begin
     id 1 
     name lhipjoint
     direction 0.576517 -0.752066 0.319413 
     length 2.45433 
     axis 0 0 0  XYZ
  end
  begin
     id 2 
     name lfemur
     direction 0.34202 -0.939693 0  
     length 7.54459  
     axis 0 0 20  XYZ
    dof rx ry rz
    limits (-160.0 20.0)
           (-70.0 70.0)
           (-60.0 70.0)
  end
  begin
     id 3 
     name ltibia
     direction 0.34202 -0.939693 0   
     length 7.73986   
     axis 0 0 20   XYZ
    dof rx
    limits (-10.0 170.0)
  end
  begin
     id 4 
     name lfoot
     direction 0.090693 -0.249177 0.964202   
     length 2.28437   
     axis -90 7.62852e-016 20   XYZ
    dof rx rz
    limits (-45.0 90.0)
           (-70.0 20.0)
  end
  begin
     id 5 
     name ltoes
     direction 1.5356e-011 -4.21928e-011 1   
     length 1.14243   
     axis -90 7.62852e-016 20   XYZ
    dof rx
    limits (-90.0 20.0)
  end
  begin
     id 6 
     name rhipjoint
     direction -0.573937 -0.753736 0.320122   
     length 2.44889  
     axis 0 0 0  XYZ 
  end
  begin
     id 7 
     name rfemur
     direction -0.34202 -0.939693 0   
     length 7.50166   
     axis 0 0 -20   XYZ
    dof rx ry rz
    limits (-160.0 20.0)
           (-70.0 70.0)
           (-70.0 60.0)
  end
  begin
     id 8 
     name rtibia
     direction -0.34202 -0.939693 0   
     length 7.54266   
     axis 0 0 -20   XYZ
    dof rx
    limits (-10.0 170.0)
 end
 begin
     id 9 
     name rfoot
     direction -0.114017 -0.31326 0.942798   
     length 2.34212  
     axis -90 -7.62852e-016 -20   XYZ
    dof rx rz
    limits (-45.0 90.0)
           (-20.0 70.0)
  end
  begin
     id 10 
     name rtoes
     direction -1.53557e-011 -4.21867e-011 1   
     length 1.16246   
     axis -90 -7.62852e-016 -20   XYZ
    dof rx
    limits (-90.0 20.0)
  end
  begin
     id 11 
     name lowerback
     direction -0.0228371 0.999155 -0.034167   
     length 2.0537   
     axis 0 0 0   XYZ
    dof rx ry rz
    limits (-20.0 45.0)
           (-30.0 30.0)
           (-30.0 30.0)
  end
  begin
     id 12 
     name upperback
     direction 0.0198981 0.999794 0.00389455   
     length 2.05302   
     axis 0 0 0   XYZ
    dof rx ry rz
    limits (-20.0 45.0)
           (-30.0 30.0)
           (-30.0 30.0)
  end
  begin
     id 13 
     name thorax
     direction 0.0304566 0.99935 0.0192987   
     length 2.05315   
     axis 0 0 0   XYZ
    dof rx ry rz
    limits (-20.0 45.0)
           (-30.0 30.0)
           (-30.0 30.0)
  end
  begin
     id 14 
     name lowerneck
     direction -0.0196762 0.99417 0.106017   
     length 1.82056   
     axis 0 0 0   XYZ
    dof rx ry rz
    limits (-20.0 45.0)
           (-30.0 30.0)
           (-30.0 30.0)
  end
  begin
     id 15 
     name upperneck
     direction 0.00517787 0.9802 -0.197944   
     length 1.83835   
     axis 0 0 0   XYZ
    dof rx ry rz
    limits (-20.0 45.0)
           (-30.0 30.0)
           (-30.0 30.0)
  end
  begin
     id 16
     name head
     direction 0.00211419 0.996945 -0.078081  
     length 1.85629  
     axis 0 0 0   XYZ
    dof rx ry rz
    limits (-20.0 45.0)
           (-30.0 30.0)
           (-30.0 30.0)
  end
  begin
     id 17 
     name lclavicle
     direction 0.930001 0.365811 -0.0357824  
     length 3.81961  
     axis 0 0 0   XYZ
    dof ry rz
    limits (-20.0 10.0)
           (0.0 20.0)
  end
  begin
     id 18 
     name lhumerus
     direction 1 -4.48968e-011 -3.06644e-027   
     length 5.14507   
     axis 180 -30 -90   XYZ
    dof rx ry rz
    limits (-60.0 90.0)
           (-90.0 90.0)
           (-90.0 90.0)
  end
  begin
     id 19
     name lradius
     direction 1 -4.48965e-011 9.06925e-028   
     length 3.50646   
     axis 180 -30 -90   XYZ
    dof rx
    limits (-10.0 170.0)
  end
  begin
     id 20
     name lwrist
     direction 1 -4.48957e-011 1.03922e-027   
     length 1.75323   
     axis -2.56395e-016 90 90   XYZ
    dof ry
    limits (-180.0 0.0)
 end
  begin
     id 21 
     name lhand
     direction 1 -4.48967e-011 2.08017e-027   
     length 0.629969   
     axis -1.32723e-015 90 90   XYZ
    dof rx rz
    limits (-90.0 90.0)
           (-45.0 45.0)
  end
  begin
     id 22 
     name lfingers
     direction 1 -4.49089e-011 4.20095e-027   
     length 0.507897   
     axis -2.6545e-015 90 90   XYZ
    dof rx
    limits (0.0 90.0)
  end
  begin
     id 23
     name lthumb
     direction 0.707107 -6.35001e-011 0.707107   
     length 0.729241   
     axis -90 45 5.05613e-014   XYZ
    dof rx rz
    limits (-45.0 45.0)
           (-45.0 45.0)
  end
  begin
     id 24 
     name rclavicle
     direction -0.881882 0.464123 -0.0829113   
     length 3.47515  
     axis 0 0 0   XYZ 
    dof ry rz
    limits (-10.0 20.0)
           (-20.0 0.0)
  end
  begin
     id 25 
     name rhumerus
     direction -1 -4.48961e-011 -1.55672e-027  
     length 5.232   
     axis 180 30 90   XYZ
    dof rx ry rz
    limits (-90.0 60.0)
           (-90.0 90.0)
           (-90.0 90.0)
  end
  begin
     id 26 
     name rradius
     direction -1 -4.48963e-011 6.18178e-029   
     length 3.65641   
     axis 180 30 90   XYZ
    dof rx
    limits (-10.0 170.0)
  end
  begin
     id 27 
     name rwrist
     direction -1 -4.48982e-011 1.04136e-027   
     length 1.8282   
     axis -2.56395e-016 -90 -90   XYZ
    dof ry
    limits (-180.0 0.0)
  end
  begin
     id 28
     name rhand
     direction -1 -4.48929e-011 2.07378e-027   
     length 0.656807   
     axis -1.32723e-015 -90 -90   XYZ
    dof rx rz
    limits (-90.0 90.0)
           (-45.0 45.0)
  end
  begin
     id 29
     name rfingers
     direction -1 -4.489e-011 4.13816e-027   
     length 0.529535   
     axis -2.6545e-015 -90 -90   XYZ
    dof rx
    limits (0.0 90.0)
  end
  begin
     id 30
     name rthumb
     direction -0.707107 -6.34843e-011 0.707107   
     length 0.760309   
     axis -90 -45 -5.05613e-014   XYZ
    dof rx rz
    limits (-45.0 45.0)
           (-45.0 45.0)
  end
:hierarchy
  begin
    root lhipjoint rhipjoint lowerback
    lhipjoint lfemur
    lfemur ltibia
    ltibia lfoot
    lfoot ltoes
    rhipjoint rfemur
    rfemur rtibia
    rtibia rfoot
    rfoot rtoes
    lowerback upperback
    upperback thorax
    thorax lowerneck lclavicle rclavicle
    lowerneck upperneck
    upperneck head
    lclavicle lhumerus
    lhumerus lradius
    lradius lwrist
    lwrist lhand lthumb
    lhand lfingers
    rclavicle rhumerus
    rhumerus rradius
    rradius rwrist
    rwrist rhand rthumb
    rhand rfingers
  end

#!OML:ASF H:\ManfredETheater\Project 1\Capture day 1\Session 1\subject.ASF
:FULLY-SPECIFIED
:DEGREES
31
root 13.4101 14.8665 29.5499 -159.086 -17.357 184.367
lowerback 15.9364 4.78467 6.90248
upperback 1.73136 7.3651 2.83431
thorax -6.53488 3.26915 -2.3542
lowerneck -12.1938 -2.3566 -3.29401
upperneck -9.23801 -3.90121 -3.23457
head -0.898435 -2.28269 -0.55759
rclavicle 4.05521e-014 -4.45278e-014
rhumerus -21.8967 22.1848 -86.3552
rradius 104.298
rwrist -12.1876
rhand -25.7424 6.48071
rfingers 7.12502
rthumb 0.794528 -23.4976
lclavicle 4.05521e-014 -4.45278e-014
lhumerus -92.7861 -25.7381 95.7202
lradius 80.4943
lwrist 4.48736
lhand -28.7758 -16.4367
lfingers 7.12502
lthumb -2.13515 13.5324
rfemur -4.88616 -1.50311 24.9154
rtibia 42.6417
rfoot -23.3646 -6.07402
rtoes -51.1453
lfemur -83.8643 6.55769 -17.4412
ltibia 83.3446
lfoot -13.4315 -9.20582
ltoes -12.5019
32
root 13.2215 14.8869 29.0523 -159.59 -17.8264 184.396
lowerback 15.4029 4.96473 7.06494
upperback 1.78684 7.58043 2.80948
thorax -6.13959 3.39267 -2.45272
lowerneck -12.2561 -2.69061 -3.47042
upperneck -8.9134 -4.27479 -3.13765
head -0.783119 -2.45821 -0.514494
rclavicle 8.34896e-014 -1.59028e-015
rhumerus -21.409 23.5308 -85.1184
rradius 107.35
rwrist -11.779
rhand -25.597 7.06466
rfingers 7.12502
rthumb 0.934957 -22.913
lclavicle 8.34896e-014 -1.59028e-015
lhumerus -96.2013 -25.9939 96.0902
lradius 82.4521
lwrist 5.65338
lhand -28.1467 -17.1474
lfingers 7.12502
lthumb -1.52756 12.8269
rfemur -0.891412 -0.926756 24.813
rtibia 38.5133
rfoot -19.5728 -3.79849
rtoes -50.5072
lfemur -84.1419 5.67761 -17.1422
ltibia 79.5889
lfoot -13.4708 -9.32586
ltoes -13.5683
33
root 13.0274 14.9124 28.5475 -160.136 -18.3475 184.503
lowerback 14.9237 5.10173 7.29467
upperback 1.85458 7.74906 2.81643
thorax -5.75941 3.49009 -2.54606
lowerneck -12.2929 -3.00451 -3.64098
upperneck -8.64756 -4.63128 -3.04401
head -0.689639 -2.62643 -0.472846
rclavicle -1.18476e-013 1.74931e-014
rhumerus -20.8936 24.7721 -83.8675
rradius 110.098
rwrist -11.2142
rhand -25.5365 7.46527
rfingers 7.12502
rthumb 0.993373 -22.5122
lclavicle -1.18476e-013 1.74931e-014
lhumerus -99.08 -25.8467 96.0815
lradius 84.2089
lwrist 6.8344
lhand -27.4177 -17.7853
lfingers 7.12502
lthumb -0.823548 12.1929
rfemur 3.17295 -0.194686 24.8549
rtibia 33.9733
rfoot -14.6111 -1.47448
rtoes -49.3688
lfemur -84.1005 4.81835 -16.8001
ltibia 75.651
lfoot -13.3995 -9.32697
ltoes -14.4998
34
root 12.8285 14.9432 28.0356 -160.723 -18.8911 184.691
lowerback 14.5044 5.20408 7.58675
upperback 1.92454 7.88218 2.84035
thorax -5.40584 3.56689 -2.65181
lowerneck -12.2818 -3.30155 -3.7948
upperneck -8.43592 -4.97294 -2.92632
head -0.6194 -2.78703 -0.425221
rclavicle 7.95139e-016 1.59028e-015
rhumerus -20.3888 25.8919 -82.6845
rradius 112.554
rwrist -10.4554
rhand -25.5267 7.58513
rfingers 7.12502
rthumb 1.00285 -22.3923
lclavicle 7.95139e-016 1.59028e-015
lhumerus -101.42 -25.379 95.6907
lradius 85.7846
lwrist 7.86103
lhand -26.6357 -18.2678
lfingers 7.12502
lthumb -0.0681878 11.7119
rfemur 7.29008 0.669918 25.0431
rtibia 29.017
rfoot -8.38976 0.476117
rtoes -47.7054
lfemur -83.7612 4.0183 -16.447
ltibia 71.6261
lfoot -13.2532 -9.21261
ltoes -15.35
35
root 12.6256 14.9771 27.5181 -161.313 -19.4175 184.964
lowerback 14.1145 5.28584 7.93664
upperback 1.97961 7.99696 2.86297
thorax -5.07691 3.6326 -2.78829
lowerneck -12.2404 -3.58815 -3.93088
upperneck -8.23762 -5.30121 -2.75976
head -0.556106 -2.93994 -0.364892
rclavicle 3.97569e-015 -8.5875e-014
rhumerus -19.926 26.8998 -81.6504
rradius 114.727
rwrist -9.57219
rhand -25.478 7.40958
rfingers 7.12502
rthumb 1.0499 -22.5676
lclavicle 3.97569e-015 -8.5875e-014
lhumerus -103.251 -24.6715 94.9515
lradius 87.2076
lwrist 8.64423
lhand -25.874 -18.4997
lfingers 7.12502
lthumb 0.6674 11.479
rfemur 11.4574 1.6239 25.3636
rtibia 23.56
rfoot -0.875612 1.61369
rtoes -45.6512
lfemur -83.1998 3.32086 -16.1098
ltibia 67.6177
lfoot -13.0478 -9.00781
ltoes -16.0037
36
root 12.4198 15.012 26.9964 -161.879 -19.8978 185.304
lowerback 13.7377 5.3614 8.32461
upperback 2.0089 8.10967 2.86682
thorax -4.77359 3.69637 -2.96491
lowerneck -12.1838 -3.86749 -4.04647
upperneck -8.02024 -5.61541 -2.53093
head -0.48669 -3.0844 -0.288993
rclavicle -2.62396e-014 -6.52014e-014
rhumerus -19.5434 27.7959 -80.8355
rradius 116.628
rwrist -8.62727
rhand -25.4107 6.98381
rfingers 7.12502
rthumb 1.11488 -22.993
lclavicle -2.62396e-014 -6.52014e-014
lhumerus -104.615 -23.8015 93.9346
lradius 88.4914
lwrist 9.18676
lhand -25.2093 -18.5007
lfingers 7.12502
lthumb 1.30946 11.475
rfemur 15.7724 2.5937 25.7758
rtibia 17.4007
rfoot 7.724 1.78996
rtoes -43.3494
lfemur -82.4816 2.75417 -15.8251
ltibia 63.746
lfoot -12.8022 -8.7595
ltoes -16.4988
37
root 12.2126 15.0462 26.4725 -162.388 -20.3073 185.695
lowerback 13.3502 5.44731 8.72357
upperback 2.00591 8.23749 2.84256
thorax -4.49009 3.76805 -3.17708
lowerneck -12.1232 -4.13728 -4.1314
upperneck -7.76979 -5.91296 -2.25017
head -0.405331 -3.21944 -0.202724
rclavicle 2.22639e-014 -2.70347e-014
rhumerus -19.2629 28.5899 -80.2851
rradius 118.253
rwrist -7.70549
rhand -25.3361 6.41684
rfingers 7.12502
rthumb 1.18699 -23.5596
lclavicle 2.22639e-014 -2.70347e-014
lhumerus -105.546 -22.825 92.7207
lradius 89.6428
lwrist 9.55735
lhand -24.6888 -18.2971
lfingers 7.12502
lthumb 1.81213 11.675
rfemur 20.6443 2.49188 25.8515
rtibia 9.71569
rfoot 17.6105 2.03891
rtoes -40.2768
lfemur -81.6765 2.34433 -15.6225
ltibia 60.1396
lfoot -12.5772 -8.51968
ltoes -16.9955
38
root 12.0058 15.0791 25.9481 -162.823 -20.6349 186.123
lowerback 12.9487 5.55363 9.1073
upperback 1.96623 8.39095 2.78969
thorax -4.23123 3.85306 -3.41217
lowerneck -12.0766 -4.39236 -4.17684
upperneck -7.48138 -6.18957 -1.93962
head -0.308494 -3.34379 -0.114556
rclavicle 7.55382e-014 -3.81667e-014
rhumerus -19.1113 29.2995 -80.0396
rradius 119.59
rwrist -6.89226
rhand -25.3189 5.82829
rfingers 7.12502
rthumb 1.20362 -24.1481
lclavicle 7.55382e-014 -3.81667e-014
lhumerus -106.07 -21.7694 91.3993
lradius 90.6648
lwrist 9.88714
lhand -24.3384 -17.9541
lfingers 7.12502
lthumb 2.15055 12.0148
rfemur 26.3714 2.56375 25.8491
rtibia 3.18055e-015
rfoot 28.2389 1.29385
rtoes -36.4268
lfemur -80.8372 2.10442 -15.5124
ltibia 56.9269
lfoot -12.3853 -8.30644
ltoes -17.4848
39
root 11.8003 15.1119 25.4252 -163.164 -20.8769 186.56
lowerback 12.5234 5.68645 9.43844
upperback 1.89619 8.57201 2.71342
thorax -3.99018 3.95322 -3.64305
lowerneck -12.0481 -4.62522 -4.18665
upperneck -7.18992 -6.44143 -1.62265
head -0.207365 -3.4565 -0.0302011
rclavicle -2.38542e-015 6.36111e-015
rhumerus -19.083 29.9429 -80.1009
rradius 120.606
rwrist -6.26023
rhand -25.398 5.33238
rfingers 7.12502
rthumb 1.12722 -24.6444
lclavicle -2.38542e-015 6.36111e-015
lhumerus -106.184 -20.6321 90.0583
lradius 91.5587
lwrist 10.3158
lhand -24.1463 -17.5257
lfingers 7.12502
lthumb 2.33611 12.4413
rfemur 27.1242 2.64719 25.9881
rtibia 5.08889e-014
rfoot 33.2775 1.39273
rtoes -32.1833
lfemur -80.0021 2.0208 -15.5052
ltibia 54.2213
lfoot -12.2436 -8.13616
ltoes -17.9804
40
root 11.5976 15.1444 24.9059 -163.417 -21.0219 187.008
lowerback 12.1001 5.8515 9.69365
upperback 1.79258 8.78928 2.62886
thorax -3.78915 4.07095 -3.8455
lowerneck -12.0358 -4.82759 -4.15789
upperneck -6.9264 -6.66323 -1.32518
head -0.113449 -3.55581 0.0429454
rclavicle 1.19271e-014 1.11319e-014
rhumerus -19.1966 30.5343 -80.4817
rradius 121.274
rwrist -5.84393
rhand -25.6599 4.96753
rfingers 7.12502
rthumb 0.874237 -25.0104
lclavicle 1.19271e-014 1.11319e-014
lhumerus -105.893 -19.3959 88.7788
lradius 92.3249
lwrist 10.94
lhand -24.0757 -17.0538
lfingers 7.12502
lthumb 2.40424 12.9124
rfemur 27.801 2.79854 26.201
rtibia -3.49861e-014
rfoot 37.0889 1.25187
rtoes -28.0474
lfemur -79.1915 2.08098 -15.5444
ltibia 52.127
lfoot -12.1671 -7.98616
ltoes -18.5239
41
root 11.3989 15.1771 24.3912 -163.605 -21.0837 187.452
lowerback 11.7046 6.04036 9.85452
upperback 1.66576 9.03177 2.5488
thorax -3.63771 4.19976 -3.99773
lowerneck -12.0283 -4.99424 -4.10613
upperneck -6.73811 -6.85151 -1.05051
head -0.0437167 -3.6404 0.107787
rclavicle 2.0117e-013 -1.59028e-015
rhumerus -19.4595 31.0716 -81.1835
rradius 121.564
rwrist -5.63348
rhand -26.1226 4.75293
rfingers 7.12502
rthumb 0.427357 -25.2264
lclavicle 2.0117e-013 -1.59028e-015
lhumerus -105.181 -18.0363 87.6172
lradius 92.946
lwrist 11.8105
lhand -24.0731 -16.6037
lfingers 7.12502
lthumb 2.40675 13.3624
rfemur 28.4538 2.99909 26.4769
rtibia -1.27222e-014
rfoot 39.5823 0.703959
rtoes -24.3065
lfemur -78.4105 2.24992 -15.6009
ltibia 50.7305
lfoot -12.0356 -7.81686
ltoes -19.2034
42
root 11.2044 15.2112 23.882 -163.78 -21.1077 187.893
lowerback 11.3968 6.22331 9.95211
upperback 1.52448 9.27014 2.47654
thorax -3.55984 4.32251 -4.11749
lowerneck -12.0106 -5.12013 -4.03263
upperneck -6.66628 -7.00249 -0.789982
head -0.0137888 -3.70875 0.168629
rclavicle -1.43125e-013 1.74931e-014
rhumerus -19.869 31.529 -82.2183
rradius 121.444
rwrist -5.586
rhand -26.7526 4.66944
rfingers 7.12502
rthumb -0.181105 -25.3102
lclavicle -1.43125e-013 1.74931e-014
lhumerus -104.053 -16.5402 86.6068
lradius 93.4317
lwrist 12.8979
lhand -24.0928 -16.1665
lfingers 7.12502
lthumb 2.38773 13.7999
rfemur 29.1248 3.20454 26.8165
rtibia 5.725e-014
rfoot 40.9132 -0.46697
rtoes -21.2694
lfemur -77.6695 2.49247 -15.664
ltibia 50.1003
lfoot -11.5813 -7.58448
ltoes -19.6024
43
root 11.0161 15.2443 23.3794 -163.981 -21.1203 188.329
lowerback 11.22 6.38228 9.99018
upperback 1.37684 9.48553 2.41797
thorax -3.57479 4.42824 -4.20577
lowerneck -11.9848 -5.20565 -3.94879
upperneck -6.72513 -7.11522 -0.529994
head -0.0271758 -3.76067 0.231786
rclavicle 1.43125e-013 1.27222e-014
rhumerus -20.4281 31.8614 -83.583
rradius 120.9
rwrist -5.63261
rhand -27.4843 4.67766
rfingers 7.12502
rthumb -0.887829 -25.3002
lclavicle 1.43125e-013 1.27222e-014
lhumerus -102.496 -14.9031 85.7625
lradius 93.7619
lwrist 14.1301
lhand -24.0544 -15.7395
lfingers 7.12502
lthumb 2.42483 14.2264
rfemur 26.2644 3.32161 27.2171
rtibia 7.12059
rfoot 37.8524 -1.74909
rtoes -19.0848
lfemur -76.9705 2.78888 -15.7252
ltibia 50.2486
lfoot -10.9658 -7.2871
ltoes -19.755
44
root 10.8358 15.2769 22.883 -164.262 -21.1881 188.732
lowerback 11.227 6.48295 9.97413
upperback 1.23744 9.63807 2.36915
thorax -3.7009 4.49626 -4.27382
lowerneck -11.9428 -5.25384 -3.86453
upperneck -6.91879 -7.19106 -0.247184
head -0.0851847 -3.79671 0.30629
rclavicle -1.90833e-014 -7.4743e-014
rhumerus -21.1357 31.991 -85.2639
rradius 119.935
rwrist -5.66141
rhand -28.2112 4.728
rfingers 7.12502
rthumb -1.58994 -25.2458
lclavicle -1.90833e-014 -7.4743e-014
lhumerus -100.532 -13.1488 85.1081
lradius 93.9452
lwrist 15.3595
lhand -23.9446 -15.2907
lfingers 7.12502
lthumb 2.53085 14.6741
rfemur 22.444 3.35668 27.5758
rtibia 16.2565
rfoot 33.1154 -3.5845
rtoes -17.8446
lfemur -76.2843 3.09376 -15.8052
ltibia 51.1236
lfoot -10.2013 -6.99221
ltoes -19.5625
45
root 10.6635 15.3089 22.3933 -164.591 -21.3651 189.004
lowerback 11.4033 6.49768 9.8592
upperback 1.11094 9.68511 2.30094
thorax -3.93422 4.50831 -4.32347
lowerneck -11.8866 -5.26911 -3.7755
upperneck -7.22541 -7.23332 0.0610459
head -0.180366 -3.81884 0.391716
rclavicle 6.44062e-014 5.08889e-014
rhumerus -21.9818 31.8386 -87.2142
rradius 118.574
rwrist -5.59597
rhand -28.7901 4.8001
rfingers 7.12502
rthumb -2.14898 -25.1688
lclavicle 6.44062e-014 5.08889e-014
lhumerus -98.1691 -11.3156 84.6528
lradius 93.9592
lwrist 16.4451
lhand -23.7639 -14.8204
lfingers 7.12502
lthumb 2.70534 15.1421
rfemur 19.6041 2.79686 27.6503
rtibia 23.4462
rfoot 29.035 -5.34398
rtoes -17.5263
lfemur -75.6062 3.33514 -15.9942
ltibia 52.5896
lfoot -9.39909 -6.75781
ltoes -19.1727
